<?xml version="1.0" standalone="no"?><!DOCTYPE svg PUBLIC "-//W3C//DTD SVG 1.1//EN" "http://www.w3.org/Graphics/SVG/1.1/DTD/svg11.dtd"><svg t="1631930913181" class="icon" viewBox="0 0 1024 1024" version="1.1" xmlns="http://www.w3.org/2000/svg" p-id="4498" xmlns:xlink="http://www.w3.org/1999/xlink" width="200" height="200"><defs><style type="text/css"></style></defs><path d="M504.896 576c158.784 0 288-129.216 288-288S663.68 0 504.896 0c-158.784 0-288 129.216-288 288S346.112 576 504.896 576zM504.896 64c123.52 0 224 100.48 224 224 0 123.52-100.48 224-224 224-123.52 0-224-100.48-224-224C280.896 164.48 381.376 64 504.896 64z" p-id="4499"></path><path d="M893.696 681.408 715.904 610.304 692.096 669.696 834.304 726.592 860.224 960 163.776 960 189.696 726.592 331.904 669.696 308.096 610.304 130.304 681.408 92.224 1024 931.776 1024Z" p-id="4500"></path></svg>